<svg width="88" height="84" viewBox="0 0 88 84" fill="none" xmlns="http://www.w3.org/2000/svg">
<path d="M70.229 73.6562C78.9387 65.8499 85.9879 53.9566 85.9879 41.1262C85.9879 28.1183 78.7338 20.5227 70.1238 14.111C65.6567 10.7844 62.3063 9.93734 59.4144 9.75402C58.5571 9.69967 57.6653 9.70502 56.8771 9.70975C56.4574 9.71226 56.0672 9.7146 55.7271 9.70767C54.6573 9.68584 53.7303 9.5854 52.7849 9.24164C51.8713 8.90945 51.1372 8.38435 50.3825 7.69555C50.0026 7.34878 49.6332 6.9757 49.2235 6.56186L49.2103 6.54851C48.804 6.13809 48.3611 5.69122 47.8783 5.25102C45.8552 3.40633 43.2014 1.75369 38.3553 1.52292C33.5907 1.29604 27.0715 2.75397 20.8709 5.91057C14.6529 9.07601 8.60566 14.0257 4.93288 20.9222C1.94419 26.5341 1.9809 32.8589 2.01708 39.0901C2.02102 39.7703 2.02497 40.4493 2.02497 41.1262C2.02497 47.6957 2.66885 53.1087 4.57294 57.8892C6.4885 62.6985 9.63268 66.7528 14.4443 70.688C21.7281 76.6451 32.4808 82.4719 42.9467 82.4719C53.7865 82.4719 62.4923 80.5906 70.229 73.6562Z" fill="#EEBD80" stroke="#694212" stroke-width="3"/>
<g opacity="0.1">
<mask id="mask0_654_634" style="mask-type:alpha" maskUnits="userSpaceOnUse" x="0" y="0" width="88" height="84">
<path d="M70.229 73.6562C78.9387 65.8499 85.9879 53.9566 85.9879 41.1262C85.9879 28.1183 78.7338 20.5227 70.1238 14.111C65.6567 10.7844 62.3063 9.93734 59.4144 9.75402C58.5571 9.69967 57.6653 9.70502 56.8771 9.70975C56.4574 9.71226 56.0672 9.7146 55.7271 9.70767C54.6573 9.68584 53.7303 9.5854 52.7849 9.24164C51.8713 8.90945 51.1372 8.38435 50.3825 7.69555C50.0026 7.34878 49.6332 6.9757 49.2235 6.56186L49.2103 6.54851C48.804 6.13809 48.3611 5.69122 47.8783 5.25102C45.8552 3.40633 43.2014 1.75369 38.3553 1.52292C33.5907 1.29604 27.0715 2.75397 20.8709 5.91057C14.6529 9.07601 8.60566 14.0257 4.93288 20.9222C1.94419 26.5341 1.9809 32.8589 2.01708 39.0901C2.02102 39.7703 2.02497 40.4493 2.02497 41.1262C2.02497 47.6957 2.66885 53.1087 4.57294 57.8892C6.4885 62.6985 9.63268 66.7528 14.4443 70.688C21.7281 76.6451 32.4808 82.4719 42.9467 82.4719C53.7865 82.4719 62.4923 80.5906 70.229 73.6562Z" fill="#EEBD80" stroke="#603535" stroke-width="3"/>
</mask>
<g mask="url(#mask0_654_634)">
<path d="M42.0859 76.333C51.4114 83.1152 58.1937 78.0286 60.737 78.4525L59.4652 87.3542L32.7602 86.5064L2.24012 67.0075L-3.69434 17.8363L13.2613 3.42402L47.1724 -4.62988L65.3997 6.39125C70.9103 12.3257 80.3206 23.0077 73.8775 18.2602C67.4344 13.5126 55.3676 14.0212 50.1397 14.869C50.5636 14.0212 48.7832 11.3931 38.2708 7.66287C27.7583 3.93264 19.1957 10.2063 18.3479 15.7168C13.2613 14.4452 11.9896 20.3796 14.109 23.7707C8.59847 24.6185 6.90291 36.0635 10.718 40.3024C4.78346 44.9652 9.02247 56.6928 10.718 59.8013C12.7527 65.2271 19.761 69.6921 23.0108 71.2463C27.7584 78.3677 37.7057 77.6047 42.0859 76.333Z" fill="#1E1E1E"/>
</g>
</g>
<circle cx="24.7063" cy="31.8245" r="5.08668" fill="#1E1E1E"/>
<circle cx="26.8259" cy="30.5529" r="1.27167" fill="white"/>
<path d="M41.6624 58.1057C31.9129 58.9535 25.9782 57.2579 23.4349 56.4102C21.3155 56.4102 19.1962 61.4968 23.859 67.0074C28.5218 72.518 39.119 71.2463 42.934 69.5507C46.749 67.8552 51.4118 57.2579 41.6624 58.1057Z" fill="url(#paint0_radial_654_634)"/>
<circle cx="48.4441" cy="32.6721" r="5.08668" fill="#1E1E1E"/>
<circle cx="50.5637" cy="31.4006" r="1.27167" fill="white"/>
<path d="M63.2599 26.0945C63.2599 26.7968 63.1244 27.1617 62.4221 27.1617C61.7198 27.1617 61.1405 26.7969 61.1405 26.0946C61.1405 25.3922 61.7098 24.8229 62.4122 24.8229C63.1145 24.8229 63.2599 25.3922 63.2599 26.0945Z" fill="#694312"/>
<path d="M34.4455 14.4451C34.4455 15.1475 33.8762 15.0884 33.1739 15.0884C32.4715 15.0884 31.4882 15.1475 31.4882 14.4451C31.4882 13.7428 32.9054 12.3257 33.6077 12.3257C34.31 12.3257 34.4455 13.7428 34.4455 14.4451Z" fill="#694312"/>
<path d="M73.0195 28.4335C73.0195 29.1358 70.4861 30.1291 69.6284 29.2813C68.9261 29.2813 68.7806 28.288 68.7806 27.5857C68.7806 26.8834 69.35 26.0946 70.0523 26.0946C70.7546 26.0946 73.0195 27.7312 73.0195 28.4335Z" fill="#694312"/>
<path d="M14.5228 41.1502C14.5228 41.8525 14.8111 41.998 14.1088 41.998C13.4065 41.998 12.4033 41.8526 12.4033 41.1503C12.4033 40.4479 12.5587 40.098 13.261 40.098C13.9634 40.098 14.5228 40.4479 14.5228 41.1502Z" fill="#694312"/>
<path d="M65.8234 30.5529C65.8234 31.2553 66.1217 31.1963 65.4194 31.1963C64.7171 31.1963 64.9756 31.6792 64.9756 30.9768C64.9756 30.2745 64.2733 30.5529 64.9756 30.5529C65.6779 30.5529 65.8234 29.8506 65.8234 30.5529Z" fill="#694312"/>
<path d="M56.9306 64.2856C56.2286 64.2633 55.8669 64.1552 55.8829 63.6554C55.8988 63.1555 56.2766 62.7549 56.9786 62.7773C57.6805 62.7996 58.2367 63.223 58.2208 63.7228C58.2048 64.2226 57.6326 64.308 56.9306 64.2856Z" fill="#694312"/>
<path d="M69.2275 44.1502C68.5255 44.1278 68.5974 43.7245 68.6133 43.2247C68.6293 42.7248 68.5926 42.0232 69.2945 42.0455C69.9965 42.0679 71.3808 43.1216 71.3648 43.6214C71.3489 44.1212 69.9294 44.1725 69.2275 44.1502Z" fill="#694312"/>
<path d="M54.3714 71.1568C53.6695 71.1344 52.7341 69.2998 53.601 68.7164C53.6169 68.2166 54.6129 68.1447 55.3149 68.1671C56.0169 68.1894 56.7924 68.6197 56.7765 69.1196C56.7605 69.6194 55.0734 71.1792 54.3714 71.1568Z" fill="#694312"/>
<path d="M42.9878 29.1211C42.2858 29.0987 42.1339 29.2993 42.1498 28.7995C42.1657 28.2997 42.3338 27.5904 43.0357 27.6127C43.7377 27.6351 44.084 27.7568 44.068 28.2567C44.0521 28.7565 43.6897 29.1435 42.9878 29.1211Z" fill="#694312"/>
<path d="M52.4163 65.968C51.7143 65.9456 51.7664 66.1598 51.7824 65.66C51.7983 65.1602 51.3098 65.3288 52.0118 65.3511C52.7138 65.3735 52.4514 64.8648 52.4355 65.3646C52.4196 65.8645 53.1182 65.9903 52.4163 65.968Z" fill="#694312"/>
<defs>
<radialGradient id="paint0_radial_654_634" cx="0" cy="0" r="1" gradientUnits="userSpaceOnUse" gradientTransform="translate(34.2632 70.3985) rotate(-90) scale(7.20613 13.0345)">
<stop stop-color="#353232"/>
<stop offset="0.984375" stop-color="#121010"/>
</radialGradient>
</defs>
</svg>
